<mxfile host="app.diagrams.net" modified="2021-12-29T17:45:47.283Z" agent="5.0 (X11)" etag="ZveJbgLi1FnPPzwRNt8F" version="15.8.2" type="github">
  <diagram id="hQehfDm02qxTdgaXdd8p" name="Page-1">
    <mxGraphModel dx="1483" dy="848" grid="0" gridSize="10" guides="1" tooltips="1" connect="1" arrows="1" fold="1" page="1" pageScale="1" pageWidth="850" pageHeight="1100" math="0" shadow="0">
      <root>
        <mxCell id="0" />
        <mxCell id="1" parent="0" />
        <mxCell id="BlvFL-KuSezPHQJA_QOU-2" value="" style="verticalLabelPosition=bottom;sketch=0;aspect=fixed;html=1;verticalAlign=top;strokeColor=none;align=center;outlineConnect=0;shape=mxgraph.citrix.provisioning_server;" vertex="1" parent="1">
          <mxGeometry x="450" y="90" width="76" height="87" as="geometry" />
        </mxCell>
        <mxCell id="BlvFL-KuSezPHQJA_QOU-3" value="" style="whiteSpace=wrap;html=1;aspect=fixed;" vertex="1" parent="1">
          <mxGeometry x="40" y="330" width="290" height="290" as="geometry" />
        </mxCell>
        <mxCell id="BlvFL-KuSezPHQJA_QOU-6" value="" style="sketch=0;aspect=fixed;html=1;points=[];align=center;image;fontSize=12;image=img/lib/mscae/Virtual_Machine_2.svg;" vertex="1" parent="1">
          <mxGeometry x="250" y="350" width="50" height="46" as="geometry" />
        </mxCell>
        <mxCell id="BlvFL-KuSezPHQJA_QOU-9" value="" style="rounded=0;whiteSpace=wrap;html=1;fontColor=#B266FF;strokeWidth=5;" vertex="1" parent="1">
          <mxGeometry x="40" y="533" width="100" height="87" as="geometry" />
        </mxCell>
        <mxCell id="BlvFL-KuSezPHQJA_QOU-8" value="&lt;div&gt;calculon&lt;/div&gt;&lt;div&gt;&lt;font color=&quot;#00FF00&quot;&gt;EXT IP&lt;/font&gt;&lt;br&gt;&lt;/div&gt;" style="text;html=1;strokeColor=none;fillColor=none;align=center;verticalAlign=middle;whiteSpace=wrap;rounded=0;" vertex="1" parent="1">
          <mxGeometry x="245" y="396" width="60" height="30" as="geometry" />
        </mxCell>
        <mxCell id="BlvFL-KuSezPHQJA_QOU-5" value="" style="sketch=0;aspect=fixed;html=1;points=[];align=center;image;fontSize=12;image=img/lib/mscae/Virtual_Machine_2.svg;" vertex="1" parent="1">
          <mxGeometry x="60" y="540" width="50" height="46" as="geometry" />
        </mxCell>
        <mxCell id="BlvFL-KuSezPHQJA_QOU-7" value="&lt;div&gt;Neuro-imager&lt;/div&gt;&lt;div&gt;&lt;font color=&quot;#B266FF&quot;&gt;NAT IP&lt;/font&gt;&lt;br&gt;&lt;/div&gt;" style="text;html=1;strokeColor=none;fillColor=none;align=center;verticalAlign=middle;whiteSpace=wrap;rounded=0;" vertex="1" parent="1">
          <mxGeometry x="40" y="586" width="90" height="30" as="geometry" />
        </mxCell>
        <mxCell id="BlvFL-KuSezPHQJA_QOU-14" value="" style="endArrow=classic;html=1;rounded=0;fontColor=#B266FF;strokeColor=#FF0000;strokeWidth=3;" edge="1" parent="1">
          <mxGeometry width="50" height="50" relative="1" as="geometry">
            <mxPoint x="140" y="540" as="sourcePoint" />
            <mxPoint x="250" y="410" as="targetPoint" />
            <Array as="points">
              <mxPoint x="220" y="500" />
            </Array>
          </mxGeometry>
        </mxCell>
        <mxCell id="BlvFL-KuSezPHQJA_QOU-16" value="" style="endArrow=classic;html=1;rounded=0;fontColor=#B266FF;strokeColor=#3333FF;strokeWidth=3;exitX=0;exitY=0.761;exitDx=0;exitDy=0;exitPerimeter=0;entryX=0.91;entryY=0.023;entryDx=0;entryDy=0;entryPerimeter=0;" edge="1" parent="1" source="BlvFL-KuSezPHQJA_QOU-6" target="BlvFL-KuSezPHQJA_QOU-9">
          <mxGeometry width="50" height="50" relative="1" as="geometry">
            <mxPoint x="130" y="533" as="sourcePoint" />
            <mxPoint x="220" y="403" as="targetPoint" />
            <Array as="points">
              <mxPoint x="160" y="450" />
            </Array>
          </mxGeometry>
        </mxCell>
        <mxCell id="BlvFL-KuSezPHQJA_QOU-17" value="&lt;div&gt;&lt;font color=&quot;#33001A&quot;&gt;Kafka&lt;/font&gt;&lt;/div&gt;&lt;div&gt;&lt;font color=&quot;#33001A&quot;&gt;ТПАК&lt;br&gt;&lt;/font&gt;&lt;/div&gt;" style="text;html=1;strokeColor=none;fillColor=none;align=center;verticalAlign=middle;whiteSpace=wrap;rounded=0;fontColor=#B266FF;" vertex="1" parent="1">
          <mxGeometry x="466" y="190" width="60" height="30" as="geometry" />
        </mxCell>
        <mxCell id="BlvFL-KuSezPHQJA_QOU-19" value="" style="endArrow=classic;html=1;rounded=0;fontColor=#33001A;strokeColor=#33FF33;strokeWidth=3;" edge="1" parent="1">
          <mxGeometry width="50" height="50" relative="1" as="geometry">
            <mxPoint x="405" y="419" as="sourcePoint" />
            <mxPoint x="627" y="419" as="targetPoint" />
          </mxGeometry>
        </mxCell>
        <mxCell id="BlvFL-KuSezPHQJA_QOU-21" value="Для Kafka на входе это будет IP адрес от calculon (93.175.29.251)" style="text;html=1;strokeColor=none;fillColor=none;align=center;verticalAlign=middle;whiteSpace=wrap;rounded=0;fontColor=#33001A;" vertex="1" parent="1">
          <mxGeometry x="365" y="422" width="367" height="30" as="geometry" />
        </mxCell>
        <mxCell id="BlvFL-KuSezPHQJA_QOU-24" value="" style="endArrow=classic;html=1;rounded=0;fontColor=#B266FF;strokeColor=#FF0000;strokeWidth=3;" edge="1" parent="1">
          <mxGeometry width="50" height="50" relative="1" as="geometry">
            <mxPoint x="395" y="476" as="sourcePoint" />
            <mxPoint x="630" y="476" as="targetPoint" />
            <Array as="points" />
          </mxGeometry>
        </mxCell>
        <mxCell id="BlvFL-KuSezPHQJA_QOU-25" value="&lt;div&gt;Маршрут neuro-imager - calculon - Kafka. Iptables надо делать на neuro-imager и calculon&lt;/div&gt;&lt;div&gt;(нужно условие, т.е. ip адрес Kafka и порт, чтобы послать на calculon из neuro-imager; на calclulon - принять соединение от neuro-imager и отправить на Kafka) &lt;/div&gt;" style="text;html=1;strokeColor=none;fillColor=none;align=center;verticalAlign=middle;whiteSpace=wrap;rounded=0;fontColor=#33001A;" vertex="1" parent="1">
          <mxGeometry x="371" y="514" width="367" height="30" as="geometry" />
        </mxCell>
        <mxCell id="BlvFL-KuSezPHQJA_QOU-26" value="" style="endArrow=classic;html=1;rounded=0;fontColor=#B266FF;strokeColor=#3333FF;strokeWidth=3;" edge="1" parent="1">
          <mxGeometry width="50" height="50" relative="1" as="geometry">
            <mxPoint x="615" y="590" as="sourcePoint" />
            <mxPoint x="392" y="590" as="targetPoint" />
            <Array as="points" />
          </mxGeometry>
        </mxCell>
        <mxCell id="BlvFL-KuSezPHQJA_QOU-27" value="Calculon принимает запрос от Kafka и рабтает условие Iptables: (переслать на neuro-imager)" style="text;html=1;strokeColor=none;fillColor=none;align=center;verticalAlign=middle;whiteSpace=wrap;rounded=0;fontColor=#33001A;" vertex="1" parent="1">
          <mxGeometry x="400" y="601" width="299" height="30" as="geometry" />
        </mxCell>
        <mxCell id="BlvFL-KuSezPHQJA_QOU-28" value="" style="endArrow=classic;startArrow=classic;html=1;rounded=0;fontColor=#33001A;strokeColor=#33FF33;strokeWidth=3;" edge="1" parent="1" target="BlvFL-KuSezPHQJA_QOU-2">
          <mxGeometry width="50" height="50" relative="1" as="geometry">
            <mxPoint x="330" y="328" as="sourcePoint" />
            <mxPoint x="380" y="278" as="targetPoint" />
          </mxGeometry>
        </mxCell>
      </root>
    </mxGraphModel>
  </diagram>
</mxfile>
